<mxfile host="app.diagrams.net" modified="2022-06-09T05:04:58.159Z" agent="5.0 (Macintosh; Intel Mac OS X 10_15_7) AppleWebKit/537.36 (KHTML, like Gecko) Chrome/101.0.4951.64 Safari/537.36" etag="vvzNMmXaZ8cmZLPctO2B" version="19.0.3" type="github">
  <diagram id="prtHgNgQTEPvFCAcTncT" name="Page-1">
    <mxGraphModel dx="788" dy="393" grid="1" gridSize="10" guides="1" tooltips="1" connect="1" arrows="1" fold="1" page="1" pageScale="1" pageWidth="827" pageHeight="1169" math="0" shadow="0">
      <root>
        <mxCell id="0" />
        <mxCell id="1" parent="0" />
        <mxCell id="dNxyNK7c78bLwvsdeMH5-11" value="Коллекция из сэмплов" style="swimlane;html=1;startSize=20;horizontal=1;containerType=tree;glass=0;" parent="1" vertex="1">
          <mxGeometry x="50" y="30" width="710" height="540" as="geometry" />
        </mxCell>
        <mxCell id="DcbLA-Xsh4hKNOqJJlx9-2" value="Трек" style="rounded=0;whiteSpace=wrap;html=1;" vertex="1" parent="dNxyNK7c78bLwvsdeMH5-11">
          <mxGeometry x="292.5" y="40" width="125" height="30" as="geometry" />
        </mxCell>
        <mxCell id="DcbLA-Xsh4hKNOqJJlx9-6" style="edgeStyle=orthogonalEdgeStyle;rounded=0;orthogonalLoop=1;jettySize=auto;html=1;entryX=0.5;entryY=0;entryDx=0;entryDy=0;" edge="1" parent="dNxyNK7c78bLwvsdeMH5-11" source="DcbLA-Xsh4hKNOqJJlx9-4" target="DcbLA-Xsh4hKNOqJJlx9-5">
          <mxGeometry relative="1" as="geometry" />
        </mxCell>
        <mxCell id="DcbLA-Xsh4hKNOqJJlx9-10" style="edgeStyle=orthogonalEdgeStyle;rounded=0;orthogonalLoop=1;jettySize=auto;html=1;entryX=0.5;entryY=0;entryDx=0;entryDy=0;" edge="1" parent="dNxyNK7c78bLwvsdeMH5-11" source="DcbLA-Xsh4hKNOqJJlx9-4" target="DcbLA-Xsh4hKNOqJJlx9-9">
          <mxGeometry relative="1" as="geometry" />
        </mxCell>
        <mxCell id="DcbLA-Xsh4hKNOqJJlx9-4" value="Алгоритм&lt;br&gt;семплирования" style="rhombus;whiteSpace=wrap;html=1;direction=south;" vertex="1" parent="dNxyNK7c78bLwvsdeMH5-11">
          <mxGeometry x="292.5" y="100" width="125" height="90" as="geometry" />
        </mxCell>
        <mxCell id="DcbLA-Xsh4hKNOqJJlx9-17" style="edgeStyle=orthogonalEdgeStyle;rounded=0;orthogonalLoop=1;jettySize=auto;html=1;" edge="1" parent="dNxyNK7c78bLwvsdeMH5-11" source="DcbLA-Xsh4hKNOqJJlx9-5" target="DcbLA-Xsh4hKNOqJJlx9-16">
          <mxGeometry relative="1" as="geometry" />
        </mxCell>
        <mxCell id="DcbLA-Xsh4hKNOqJJlx9-5" value="Семпл" style="rounded=0;whiteSpace=wrap;html=1;" vertex="1" parent="dNxyNK7c78bLwvsdeMH5-11">
          <mxGeometry x="190" y="230" width="120" height="30" as="geometry" />
        </mxCell>
        <mxCell id="DcbLA-Xsh4hKNOqJJlx9-22" style="edgeStyle=orthogonalEdgeStyle;rounded=0;orthogonalLoop=1;jettySize=auto;html=1;entryX=0.5;entryY=0;entryDx=0;entryDy=0;" edge="1" parent="dNxyNK7c78bLwvsdeMH5-11" source="DcbLA-Xsh4hKNOqJJlx9-9" target="DcbLA-Xsh4hKNOqJJlx9-21">
          <mxGeometry relative="1" as="geometry" />
        </mxCell>
        <mxCell id="DcbLA-Xsh4hKNOqJJlx9-9" value="Семпл" style="rounded=0;whiteSpace=wrap;html=1;" vertex="1" parent="dNxyNK7c78bLwvsdeMH5-11">
          <mxGeometry x="390" y="230" width="120" height="30" as="geometry" />
        </mxCell>
        <mxCell id="DcbLA-Xsh4hKNOqJJlx9-14" value="...." style="text;html=1;strokeColor=none;fillColor=none;align=center;verticalAlign=middle;whiteSpace=wrap;rounded=0;" vertex="1" parent="dNxyNK7c78bLwvsdeMH5-11">
          <mxGeometry x="80" y="230" width="60" height="30" as="geometry" />
        </mxCell>
        <mxCell id="DcbLA-Xsh4hKNOqJJlx9-15" value="..." style="text;html=1;strokeColor=none;fillColor=none;align=center;verticalAlign=middle;whiteSpace=wrap;rounded=0;" vertex="1" parent="dNxyNK7c78bLwvsdeMH5-11">
          <mxGeometry x="560" y="230" width="60" height="30" as="geometry" />
        </mxCell>
        <mxCell id="DcbLA-Xsh4hKNOqJJlx9-16" value="Муз НФТ" style="rounded=0;whiteSpace=wrap;html=1;" vertex="1" parent="dNxyNK7c78bLwvsdeMH5-11">
          <mxGeometry x="190" y="300" width="120" height="30" as="geometry" />
        </mxCell>
        <mxCell id="DcbLA-Xsh4hKNOqJJlx9-21" value="Муз НФТ" style="rounded=0;whiteSpace=wrap;html=1;" vertex="1" parent="dNxyNK7c78bLwvsdeMH5-11">
          <mxGeometry x="390" y="300" width="120" height="30" as="geometry" />
        </mxCell>
        <mxCell id="DcbLA-Xsh4hKNOqJJlx9-24" value="" style="endArrow=none;dashed=1;html=1;dashPattern=1 3;strokeWidth=2;rounded=0;entryX=0.5;entryY=1;entryDx=0;entryDy=0;exitX=0;exitY=0.5;exitDx=0;exitDy=0;" edge="1" parent="dNxyNK7c78bLwvsdeMH5-11" source="DcbLA-Xsh4hKNOqJJlx9-25" target="DcbLA-Xsh4hKNOqJJlx9-14">
          <mxGeometry width="50" height="50" relative="1" as="geometry">
            <mxPoint x="230" y="410" as="sourcePoint" />
            <mxPoint x="130" y="240" as="targetPoint" />
          </mxGeometry>
        </mxCell>
        <mxCell id="DcbLA-Xsh4hKNOqJJlx9-25" value="Какой то общий&lt;br&gt;продукт" style="shape=parallelogram;perimeter=parallelogramPerimeter;whiteSpace=wrap;html=1;fixedSize=1;fillColor=#d5e8d4;strokeColor=#82b366;" vertex="1" parent="dNxyNK7c78bLwvsdeMH5-11">
          <mxGeometry x="288.75" y="430" width="132.5" height="60" as="geometry" />
        </mxCell>
        <mxCell id="DcbLA-Xsh4hKNOqJJlx9-26" value="&lt;i&gt;&lt;u&gt;Социальная история&lt;/u&gt;&lt;/i&gt;" style="text;html=1;strokeColor=none;fillColor=none;align=center;verticalAlign=middle;whiteSpace=wrap;rounded=0;" vertex="1" parent="dNxyNK7c78bLwvsdeMH5-11">
          <mxGeometry x="260" y="490" width="175" height="30" as="geometry" />
        </mxCell>
        <mxCell id="DcbLA-Xsh4hKNOqJJlx9-27" value="" style="endArrow=none;dashed=1;html=1;dashPattern=1 3;strokeWidth=2;rounded=0;entryX=0.5;entryY=1;entryDx=0;entryDy=0;exitX=0.5;exitY=0;exitDx=0;exitDy=0;" edge="1" parent="dNxyNK7c78bLwvsdeMH5-11" source="DcbLA-Xsh4hKNOqJJlx9-25" target="DcbLA-Xsh4hKNOqJJlx9-16">
          <mxGeometry width="50" height="50" relative="1" as="geometry">
            <mxPoint x="191" y="460" as="sourcePoint" />
            <mxPoint x="241" y="410" as="targetPoint" />
          </mxGeometry>
        </mxCell>
        <mxCell id="DcbLA-Xsh4hKNOqJJlx9-28" value="" style="endArrow=none;dashed=1;html=1;dashPattern=1 3;strokeWidth=2;rounded=0;entryX=0.5;entryY=1;entryDx=0;entryDy=0;exitX=0.5;exitY=0;exitDx=0;exitDy=0;" edge="1" parent="dNxyNK7c78bLwvsdeMH5-11" source="DcbLA-Xsh4hKNOqJJlx9-25" target="DcbLA-Xsh4hKNOqJJlx9-21">
          <mxGeometry width="50" height="50" relative="1" as="geometry">
            <mxPoint x="441" y="400" as="sourcePoint" />
            <mxPoint x="491" y="350" as="targetPoint" />
          </mxGeometry>
        </mxCell>
        <mxCell id="DcbLA-Xsh4hKNOqJJlx9-29" value="" style="endArrow=none;dashed=1;html=1;dashPattern=1 3;strokeWidth=2;rounded=0;entryX=0.5;entryY=1;entryDx=0;entryDy=0;exitX=0.933;exitY=0.617;exitDx=0;exitDy=0;exitPerimeter=0;" edge="1" parent="dNxyNK7c78bLwvsdeMH5-11" source="DcbLA-Xsh4hKNOqJJlx9-25" target="DcbLA-Xsh4hKNOqJJlx9-15">
          <mxGeometry width="50" height="50" relative="1" as="geometry">
            <mxPoint x="550" y="330" as="sourcePoint" />
            <mxPoint x="600" y="280" as="targetPoint" />
          </mxGeometry>
        </mxCell>
        <mxCell id="DcbLA-Xsh4hKNOqJJlx9-3" style="edgeStyle=orthogonalEdgeStyle;rounded=0;orthogonalLoop=1;jettySize=auto;html=1;exitX=0.5;exitY=1;exitDx=0;exitDy=0;" edge="1" parent="1" source="DcbLA-Xsh4hKNOqJJlx9-2">
          <mxGeometry relative="1" as="geometry">
            <mxPoint x="405" y="130" as="targetPoint" />
          </mxGeometry>
        </mxCell>
        <mxCell id="DcbLA-Xsh4hKNOqJJlx9-11" style="edgeStyle=orthogonalEdgeStyle;rounded=0;orthogonalLoop=1;jettySize=auto;html=1;" edge="1" parent="1" source="DcbLA-Xsh4hKNOqJJlx9-4">
          <mxGeometry relative="1" as="geometry">
            <mxPoint x="640" y="260" as="targetPoint" />
          </mxGeometry>
        </mxCell>
        <mxCell id="DcbLA-Xsh4hKNOqJJlx9-13" style="edgeStyle=orthogonalEdgeStyle;rounded=0;orthogonalLoop=1;jettySize=auto;html=1;" edge="1" parent="1" source="DcbLA-Xsh4hKNOqJJlx9-4">
          <mxGeometry relative="1" as="geometry">
            <mxPoint x="159.9999999999999" y="260" as="targetPoint" />
          </mxGeometry>
        </mxCell>
      </root>
    </mxGraphModel>
  </diagram>
</mxfile>
